# Blender 3.6.1
# www.blender.org
mtllib numbers.mtl
o Cube
v -1.000000 1.000000 1.000000
v -1.000000 -1.000000 1.000000
v -1.000000 1.000000 -1.000000
v -1.000000 -1.000000 -1.000000
v 1.000000 1.000000 1.000000
v 1.000000 -1.000000 1.000000
v 1.000000 1.000000 -1.000000
v 1.000000 -1.000000 -1.000000
vn -0.0000 1.0000 -0.0000
vn -0.0000 -0.0000 -1.0000
vn 1.0000 -0.0000 -0.0000
vn -0.0000 -1.0000 -0.0000
vn -1.0000 -0.0000 -0.0000
vn -0.0000 -0.0000 1.0000
vt 1.000908 -0.002039
vt -0.007729 1.001817
vt 0.001834 0.001148
vt 0.998494 0.005020
vt 0.000463 1.001594
vt -0.002510 0.001004
vt 1.002725 0.001594
vt -0.002725 1.002262
vt -0.002725 0.001594
vt 0.999760 0.001148
vt 0.003873 1.000223
vt 0.000685 -0.002039
vt 0.996486 0.004016
vt -0.002510 1.001004
vt -0.002510 0.002008
vt 1.001131 -0.000223
vt 0.002056 0.998852
vt 0.002056 -0.003410
vt 0.999315 0.998629
vt 0.996486 1.000000
vt 0.997944 1.000669
vt 1.001354 0.998629
vt 1.008534 1.001004
vt 0.999537 0.998852
s 0
usemtl numbers
f 5/1/1 3/2/1 1/3/1
f 3/4/2 8/5/2 4/6/2
f 7/7/3 6/8/3 8/9/3
f 2/10/4 8/11/4 6/12/4
f 1/13/5 4/14/5 2/15/5
f 5/16/6 2/17/6 6/18/6
f 5/1/1 7/19/1 3/2/1
f 3/4/2 7/20/2 8/5/2
f 7/7/3 5/21/3 6/8/3
f 2/10/4 4/22/4 8/11/4
f 1/13/5 3/23/5 4/14/5
f 5/16/6 1/24/6 2/17/6
